<svg height="512" viewBox="0 0 512 512" width="512" xmlns="http://www.w3.org/2000/svg">
    <path d="m151.04 280.463h30v30h-30z"/>
    <path d="m166.04 220.463c-41.355 0-75 33.645-75 75s33.645 75 75 75 75-33.645 75-75-33.645-75-75-75zm0 120c-24.813 0-45-20.187-45-45s20.187-45 45-45 45 20.187 45 45-20.187 45-45 45z"/>
    <path d="m331.04 280.463h30v30h-30z"/>
    <path d="m346.04 220.463c-41.355 0-75 33.645-75 75s33.645 75 75 75 75-33.645 75-75-33.645-75-75-75zm0 120c-24.813 0-45-20.187-45-45s20.187-45 45-45 45 20.187 45 45-20.187 45-45 45z"/>
    <path d="m470.369 65.893c-19.851-13.805-40.702-17.75-61.977-11.727-43.217 12.237-75.432 64.388-89.154 90.427-14.51-6.507-36.261-12.731-63.199-12.731s-48.689 6.224-63.199 12.731c-13.722-26.039-45.937-78.19-89.154-90.427-21.275-6.024-42.125-2.078-61.977 11.727-38.086 26.486-50.412 69.392-35.645 124.079 7.768 28.765 21.084 53.296 27.729 64.477-6.34 20.557-19.823 79.667 14.679 130.406 34.198 50.292 104.034 75.792 207.567 75.792s173.37-25.5 207.567-75.792c34.502-50.739 21.02-109.849 14.679-130.406 6.646-11.181 19.962-35.712 27.729-64.477 14.769-54.687 2.443-97.593-35.645-124.079zm-229.329 349.754c0-8.271 6.729-15 15-15s15 6.729 15 15-6.729 15-15 15-15-6.729-15-15zm197.625-47.464c-12.503 18.289-31.89 32.795-57.62 43.116-22.501 9.026-49.976 14.918-82.006 17.625 1.299-4.199 2.001-8.658 2.001-13.278 0-24.813-20.187-45-45-45s-45 20.187-45 45c0 4.62.702 9.079 2.001 13.278-32.03-2.707-59.505-8.6-82.006-17.625-25.73-10.32-45.117-24.827-57.62-43.116-32.796-47.972-9.417-109.519-9.191-110.101l2.867-7.286-4.317-6.521c-.099-.149-5.322-8.109-11.566-20.571l30.789-12.875-11.573-27.678-31.024 12.973c-1.66-4.693-3.204-9.574-4.537-14.581-5.043-18.949-6.14-35.848-3.259-50.226 3.424-17.087 12.333-30.431 27.234-40.794 8.687-6.041 17.225-9.036 25.858-9.036 3.573 0 7.163.513 10.786 1.536 17.257 4.873 35.882 21.268 53.861 47.413 14.446 21.009 23.157 40.762 23.239 40.949l7.562 17.966 15.212-11.979c1.197-.846 22.55-15.509 60.684-15.509 38.139 0 59.492 14.666 60.685 15.509l14.988 11.793 7.781-17.769c.086-.197 8.797-19.95 23.243-40.959 17.979-26.145 36.604-42.54 53.861-47.413 12.376-3.496 24.361-1.041 36.644 7.5 14.902 10.363 23.81 23.707 27.234 40.794 2.881 14.378 1.784 31.277-3.259 50.226-1.333 5.007-2.877 9.888-4.537 14.581l-31.023-12.972-11.573 27.678 30.79 12.875c-6.243 12.46-11.464 20.416-11.558 20.558l-4.301 6.524 2.828 7.261c.239.615 23.618 62.162-9.178 110.134z"/>
</svg>
